<svg width="25" height="26" viewBox="0 0 25 26" fill="none" xmlns="http://www.w3.org/2000/svg">
<path d="M12.5076 0.00028246C15.2599 0.00028246 18.0126 -0.000582573 20.7648 0.000714976C23.0527 0.00158001 24.9994 2.02316 24.9994 4.39897C25.0002 10.1121 25.0002 15.8252 24.9994 21.5383C24.999 23.7601 23.3511 25.6978 21.2288 25.9729C21.1319 25.9854 21.0328 25.9863 20.9346 25.9863C19.5094 25.9872 18.0837 25.9811 16.6585 25.9928C16.4026 25.9949 16.3364 25.8976 16.3364 25.6528C16.341 22.5962 16.3389 19.5396 16.3401 16.483C16.3401 16.1548 16.3551 16.1431 16.6785 16.1427C17.8415 16.1418 19.005 16.1427 20.1681 16.1422C20.5006 16.1422 20.5039 16.1392 20.5039 15.807C20.5048 14.5981 20.4994 13.3888 20.5085 12.1799C20.5102 11.9468 20.4411 11.8707 20.2147 11.8724C19.035 11.8819 17.8557 11.8772 16.676 11.8763C16.3589 11.8759 16.3381 11.8586 16.341 11.5307C16.346 11.0031 16.3164 10.4754 16.3659 9.94815C16.388 9.71286 16.4596 9.4979 16.5865 9.3063C16.7438 9.06928 16.951 8.93304 17.2452 8.93563C18.2281 8.94342 19.2114 8.93261 20.1943 8.94299C20.4249 8.94558 20.5106 8.87595 20.5085 8.62595C20.4985 7.40842 20.4989 6.19089 20.5081 4.97335C20.5098 4.7372 20.4344 4.6654 20.211 4.66756C19.261 4.67751 18.3101 4.68789 17.3605 4.66843C15.7642 4.63556 14.5633 5.389 13.6341 6.67228C12.8692 7.72848 12.5338 8.94082 12.518 10.2544C12.5126 10.6968 12.508 11.1402 12.5209 11.5826C12.5272 11.8041 12.4552 11.8832 12.2396 11.8806C11.4123 11.8716 10.5847 11.8845 9.75781 11.8724C9.52769 11.869 9.46569 11.9516 9.46736 12.1821C9.47651 13.3996 9.47776 14.6172 9.46694 15.8347C9.46486 16.0899 9.55516 16.1504 9.78278 16.1474C10.61 16.1362 11.4373 16.1478 12.2646 16.1392C12.4514 16.137 12.5217 16.1855 12.5213 16.3935C12.5155 19.5098 12.5159 22.6261 12.5209 25.7423C12.5213 25.9309 12.4714 25.9919 12.2862 25.9915C9.51729 25.9859 6.74795 26.0252 3.98028 25.9707C2.51176 25.9417 1.42649 25.1001 0.637096 23.8484C0.196416 23.1477 -0.000829636 22.3679 2.62224e-06 21.5249C0.0054123 15.8204 0.00208327 10.116 0.00333166 4.41151C0.00374778 2.01321 1.94333 0.00028246 4.25035 0.00028246C7.00304 -0.000150057 9.75532 0.00028246 12.5076 0.00028246Z" fill="white"/>
</svg>
