<svg width="27" height="27" viewBox="0 0 27 27" fill="none" xmlns="http://www.w3.org/2000/svg">
<path d="M13.2011 0.231041C15.1483 0.231041 17.0956 0.22974 19.0424 0.231475C20.7133 0.232776 22.2033 0.766326 23.5064 1.80219C24.8108 2.83893 25.6562 4.17974 26.0488 5.80078C26.1733 6.3148 26.2384 6.83621 26.2379 7.36715C26.2362 11.2794 26.2358 15.1921 26.2375 19.1044C26.2379 20.4591 25.8779 21.7123 25.1665 22.8596C24.22 24.3865 22.88 25.4215 21.1727 25.9772C20.6595 26.1442 20.1316 26.2431 19.5928 26.2869C19.4011 26.3025 19.2103 26.3038 19.0185 26.3038C15.1171 26.3047 11.2153 26.3038 7.31384 26.3047C6.35692 26.3051 5.44208 26.1038 4.56411 25.7312C3.674 25.3534 2.88842 24.8177 2.21649 24.1223C1.18583 23.0557 0.529959 21.7938 0.268823 20.3298C0.197683 19.9307 0.161679 19.5295 0.162113 19.1235C0.164282 15.2181 0.164716 11.3132 0.162547 7.40793C0.162113 6.40199 0.374665 5.44291 0.780683 4.52633C1.17369 3.63838 1.72589 2.85975 2.43425 2.19606C3.47446 1.22223 4.69641 0.600622 6.09926 0.341221C6.49747 0.267479 6.89915 0.229306 7.3056 0.22974C9.27062 0.232776 11.2361 0.231041 13.2011 0.231041ZM13.2024 6.04369C9.21467 6.0528 6.06456 9.22764 5.97954 13.0861C5.88801 17.2435 9.18864 20.4183 13.0454 20.4899C17.1754 20.5666 20.4105 17.2565 20.4231 13.2974C20.4366 9.28099 17.1932 6.04846 13.2024 6.04369ZM20.4591 4.58359C20.437 5.34574 21.108 6.01203 21.8836 6.01333C22.6636 6.01463 23.3208 5.34574 23.3186 4.57795C23.3164 3.81276 22.6666 3.15038 21.8888 3.14908C21.1046 3.14821 20.4357 3.81536 20.4591 4.58359Z" fill="white"/>
<path d="M8.84964 13.2631C8.81233 10.9203 10.8021 8.83338 13.3505 8.91233C15.6218 8.9826 17.6345 10.9103 17.5547 13.4236C17.4832 15.6875 15.5585 17.712 13.0274 17.6218C10.7591 17.5406 8.82188 15.6372 8.84964 13.2631Z" fill="white"/>
</svg>
