<svg width="15" height="17" viewBox="0 0 15 17" fill="none" xmlns="http://www.w3.org/2000/svg">
<path d="M7.49573 0C5.50811 0.00336246 3.60299 0.738916 2.19793 2.04546C0.792873 3.352 0.00248519 5.12295 0 6.97015C0 10.713 2.90598 13.1364 5.7171 15.4789C6.18633 15.8705 6.65727 16.2605 7.10513 16.6545L7.5 17L7.89487 16.6545C8.34701 16.2573 8.81367 15.8705 9.28376 15.4789C12.094 13.1364 15 10.713 15 6.97015C14.9977 5.12151 14.2062 3.34924 12.7993 2.04242C11.3923 0.735609 9.4849 0.00105096 7.49573 0ZM7.49573 9.82969C6.88717 9.82969 6.29228 9.66198 5.78628 9.34777C5.28028 9.03356 4.8859 8.58695 4.65302 8.06444C4.42013 7.54192 4.3592 6.96697 4.47793 6.41227C4.59665 5.85757 4.8897 5.34805 5.32001 4.94813C5.75033 4.54822 6.29858 4.27587 6.89545 4.16554C7.49231 4.0552 8.11098 4.11183 8.67322 4.32826C9.23545 4.54469 9.716 4.91121 10.0541 5.38146C10.3922 5.85171 10.5727 6.40458 10.5727 6.97015C10.5727 7.72855 10.2485 8.45588 9.67144 8.99215C9.0944 9.52842 8.31178 9.82969 7.49573 9.82969Z" fill="#A0A5BA"/>
</svg>
