<svg width="26" height="26" viewBox="0 0 26 26" fill="none" xmlns="http://www.w3.org/2000/svg">
<path d="M25.9993 12.8892C25.9989 14.6006 25.6962 16.1385 25.126 17.6268C24.6875 18.7711 24.1064 19.8368 23.3741 20.8199C22.9993 21.3228 22.5982 21.8043 22.1541 22.248C21.4157 22.986 20.5885 23.6089 19.6883 24.136C18.5866 24.7813 17.4176 25.2654 16.1827 25.59C15.5695 25.7512 14.947 25.8641 14.3166 25.9304C13.9797 25.966 13.6419 25.9827 13.3027 25.9946C12.9258 26.0073 12.5498 25.9968 12.175 25.9722C11.3079 25.9155 10.4547 25.7701 9.61745 25.5355C8.18051 25.1336 6.84065 24.5221 5.60798 23.6783C5.02591 23.2798 4.47679 22.8406 3.96369 22.3578C3.18745 21.6273 2.53729 20.7944 1.9829 19.886C1.26552 18.7105 0.738805 17.4537 0.394396 16.1205C0.249867 15.5613 0.147072 14.9937 0.0798592 14.42C0.00430002 13.7756 -0.0150291 13.1286 0.0108895 12.4811C0.0605301 11.2621 0.287647 10.0743 0.678622 8.91853C1.04368 7.83966 1.52778 6.8179 2.15203 5.86335C2.66556 5.07792 3.24588 4.34565 3.91361 3.68673C4.64943 2.96017 5.47531 2.35001 6.36928 1.83122C7.19077 1.35417 8.05399 0.969359 8.95455 0.667575C9.6583 0.431683 10.377 0.256412 11.1111 0.144396C11.4897 0.0864111 11.8706 0.0490725 12.2532 0.0253515C12.5849 0.00470548 12.9166 -0.00495862 13.2482 0.0025091C14.4036 0.0284265 15.5357 0.205895 16.6427 0.538867C17.4167 0.771684 18.1662 1.06688 18.8879 1.43104C19.8865 1.93489 20.8002 2.56394 21.6498 3.29138C22.5095 4.02761 23.1948 4.90748 23.8072 5.85061C24.2395 6.51656 24.619 7.21237 24.9459 7.93542C25.2042 8.50692 25.3979 9.10302 25.5622 9.70835C25.7436 10.3769 25.8684 11.0565 25.9382 11.7457C25.98 12.1635 26.0046 12.5834 25.9993 12.8892ZM19.3835 8.57545C19.3861 8.46168 19.3681 8.35186 19.3272 8.24555C19.228 7.98638 18.9995 7.83263 18.7368 7.85108C18.6191 7.85943 18.508 7.89633 18.3986 7.9385C17.064 8.45333 15.7298 8.96817 14.3952 9.483C11.7331 10.5105 9.07052 11.5375 6.40882 12.5658C6.14963 12.666 5.8843 12.7521 5.63829 12.8843C5.49728 12.9599 5.37691 13.0561 5.31321 13.2098C5.26137 13.335 5.28597 13.4567 5.38613 13.5485C5.45291 13.6096 5.53286 13.6487 5.61808 13.6759C5.71165 13.7058 5.80698 13.7286 5.90099 13.7572C6.90874 14.0655 7.91605 14.3744 8.92336 14.6845C8.97695 14.7012 9.01912 14.6959 9.06701 14.6652C9.33674 14.4925 9.60866 14.323 9.87971 14.1521C10.9995 13.4475 12.1197 12.7429 13.2395 12.0374C14.3214 11.3556 15.403 10.6734 16.4845 9.99124C16.5627 9.94204 16.6453 9.90163 16.738 9.8968C16.807 9.89328 16.8861 9.89065 16.9243 9.96401C16.9616 10.036 16.9041 10.0861 16.8628 10.1362C16.8566 10.1432 16.8496 10.1498 16.843 10.156C16.4635 10.503 16.0839 10.85 15.7039 11.1971C15.0169 11.8248 14.3298 12.4521 13.6427 13.0798C13.2408 13.447 12.8384 13.8147 12.4364 14.1824C11.9167 14.6572 11.3975 15.1321 10.8774 15.6056C10.8361 15.6434 10.8207 15.6865 10.8167 15.7409C10.7934 16.0717 10.7688 16.4025 10.7429 16.7328C10.7126 17.1194 10.6801 17.5055 10.6498 17.8921C10.6239 18.2251 10.6002 18.558 10.5747 18.891C10.5685 18.9705 10.572 18.9749 10.652 18.96C10.8936 18.9152 11.0909 18.7856 11.2635 18.6217C11.7551 18.1548 12.2414 17.6821 12.7272 17.2095C12.7782 17.1603 12.8111 17.1581 12.8674 17.2002C13.8857 17.9584 14.9062 18.7135 15.9244 19.4717C16.0663 19.5772 16.2227 19.6452 16.391 19.6901C16.4867 19.7155 16.5851 19.7226 16.6827 19.7037C16.8663 19.6681 16.9788 19.5433 17.0622 19.3878C17.136 19.2508 17.1747 19.101 17.2068 18.9499C17.397 18.0568 17.5867 17.1633 17.7765 16.2698C18.026 15.0956 18.276 13.921 18.5255 12.7468C18.7715 11.5885 19.0184 10.4301 19.2627 9.27127C19.311 9.04065 19.3795 8.81354 19.3835 8.57545Z" fill="white"/>
</svg>
