<svg width="17" height="17" viewBox="0 0 17 17" fill="none" xmlns="http://www.w3.org/2000/svg">
<path d="M8.5 0C6.81886 0 5.17548 0.498516 3.77766 1.43251C2.37984 2.3665 1.29037 3.69402 0.64703 5.24719C0.00368525 6.80036 -0.164646 8.50943 0.163328 10.1583C0.491302 11.8071 1.30084 13.3217 2.48959 14.5104C3.67833 15.6991 5.19289 16.5087 6.84173 16.8367C8.49057 17.1646 10.1996 16.9963 11.7528 16.353C13.306 15.7096 14.6335 14.6202 15.5675 13.2223C16.5015 11.8245 17 10.1811 17 8.5C16.9972 6.24651 16.1008 4.08611 14.5074 2.49265C12.9139 0.899188 10.7535 0.00276515 8.5 0ZM11.9362 9.04255H7.96147V3.61702H9.04658V7.95744H11.9402L11.9362 9.04255Z" fill="#A0A5BA"/>
</svg>
