<svg width="27" height="27" viewBox="0 0 27 27" fill="none" xmlns="http://www.w3.org/2000/svg">
<path d="M26.4531 13.2939C26.4531 15.9001 26.447 18.5062 26.4548 21.1124C26.4622 23.6348 24.5739 25.8445 22.0745 26.2205C21.1518 26.3594 20.2231 26.2852 19.2979 26.2869C14.7501 26.2956 10.2019 26.3047 5.65417 26.2852C3.06884 26.2739 0.991906 24.5236 0.497396 21.9916C0.430594 21.6498 0.4037 21.295 0.403266 20.9458C0.397193 17.3129 0.399796 13.6795 0.401097 10.0466C0.401531 8.56831 0.411942 7.08998 0.4037 5.61166C0.388518 3.00378 2.11279 0.855265 4.65951 0.339067C5.2885 0.211536 5.93049 0.233225 6.56901 0.233225C11.3553 0.233225 16.1412 0.239732 20.9271 0.229755C22.5356 0.226285 23.9363 0.712985 25.0463 1.90024C25.9429 2.85889 26.4491 3.99366 26.45 5.3258C26.4517 7.98184 26.4504 10.6383 26.4504 13.2943C26.4513 13.2939 26.4522 13.2939 26.4531 13.2939ZM23.7784 13.2718C23.7792 13.2718 23.7805 13.2718 23.7814 13.2718C23.7814 11.6928 23.7892 10.1139 23.7779 8.53534C23.7723 7.74673 23.8543 6.95117 23.7319 6.16994C23.4292 4.24005 21.8155 2.91745 19.7303 2.91051C15.5075 2.8962 11.2842 2.89446 7.06092 2.91442C4.7723 2.92526 3.08793 4.60442 3.07578 6.89305C3.05366 11.1033 3.05973 15.314 3.07145 19.5247C3.07492 20.843 3.53082 21.9738 4.60833 22.8024C5.354 23.3758 6.2016 23.6096 7.13423 23.6083C11.4451 23.6027 15.7556 23.6083 20.0665 23.604C22.0255 23.6022 23.761 21.8723 23.7753 19.8878C23.7905 17.6825 23.7784 15.4771 23.7784 13.2718Z" fill="white"/>
<path d="M19.7571 8.672C20.2551 8.63296 20.6941 8.45425 21.2185 8.30199C20.967 8.85116 20.6277 9.25934 20.2174 9.56125C19.7645 9.8944 19.6934 10.293 19.663 10.811C19.4687 14.1003 18.0472 16.7412 15.2515 18.5114C13.2452 19.782 10.9974 20.0514 8.66278 19.6406C7.81475 19.4913 7.01876 19.2068 6.24967 18.8333C6.06141 18.7418 5.86274 18.6607 5.64585 18.4086C7.38096 18.5396 8.86189 18.0785 10.2079 16.9659C8.92739 16.8535 8.12143 16.0645 7.32848 15.2546C7.17839 15.1011 7.05476 14.9271 6.96237 14.7341C6.87431 14.5497 6.89643 14.4465 7.14282 14.4929C7.59612 14.5784 8.05332 14.6278 8.58037 14.5632C7.84945 14.191 7.22958 13.7563 6.67607 13.2315C6.25444 12.832 5.87835 12.3973 5.68142 11.8386C5.63283 11.7007 5.55822 11.525 5.68402 11.4157C5.78596 11.3272 5.91392 11.4595 6.02497 11.5059C6.43185 11.6764 6.84264 11.8256 7.29334 11.8056C7.37749 11.8017 7.48637 11.8269 7.52802 11.7293C7.57096 11.6291 7.47032 11.5744 7.4135 11.5141C6.83874 10.9025 6.48608 10.1885 6.37199 9.3513C6.26355 8.55619 6.39151 7.80531 6.7381 7.08827C6.78452 6.99241 6.80794 6.84536 6.94068 6.84492C7.07862 6.84449 7.08946 6.99545 7.13414 7.09261C7.97221 8.91752 9.45009 9.933 11.3487 10.3954C11.9066 10.5312 12.484 10.5802 13.0609 10.5997C13.3081 10.608 13.3927 10.5108 13.3897 10.2701C13.3849 9.85709 13.3598 9.43719 13.4231 9.03248C13.6022 7.89033 14.7674 6.8883 15.9616 6.75426C16.984 6.63975 17.8719 6.89437 18.6241 7.59666C18.7616 7.72506 18.8952 7.74415 19.0687 7.69123C19.5246 7.55155 19.9701 7.38845 20.3939 7.16809C20.4998 7.113 20.6347 6.98547 20.7318 7.07526C20.8507 7.18501 20.7188 7.33206 20.6663 7.44875C20.4538 7.91983 20.1532 8.32888 19.7571 8.672Z" fill="white"/>
</svg>
