<svg width="27" height="27" viewBox="0 0 27 27" fill="none" xmlns="http://www.w3.org/2000/svg">
<path d="M0.924805 24.2191C0.924805 16.929 0.924805 9.63842 0.924805 2.34832C0.934782 2.32359 0.94953 2.2993 0.953434 2.27327C1.09224 1.40615 1.56984 0.793216 2.36322 0.432745C2.57664 0.336012 2.81608 0.296105 3.04339 0.229736C10.3226 0.229736 17.6023 0.229736 24.8816 0.229736C24.9068 0.238412 24.9315 0.250992 24.9575 0.255329C25.7049 0.376354 26.2901 0.752007 26.6601 1.41135C26.8158 1.68897 26.8891 2.01301 27.0002 2.31578C27.0002 9.60589 27.0002 16.8964 27.0002 24.1865C26.9898 24.2165 26.9755 24.2455 26.9702 24.2763C26.844 25.0285 26.464 25.6167 25.7925 25.9798C25.5123 26.1316 25.1865 26.1988 24.8816 26.3047C17.5915 26.3047 10.301 26.3047 3.01085 26.3047C2.98179 26.2943 2.95316 26.2804 2.92323 26.2743C2.16151 26.1255 1.572 25.7278 1.21197 25.0363C1.07966 24.7834 1.0185 24.4928 0.924805 24.2191ZM10.6597 8.61383C11.5372 8.79038 11.7368 9.09793 11.8227 9.80456C11.9268 10.6626 11.9437 11.5275 11.8201 12.3873C11.788 12.6102 11.7259 12.8336 11.6426 13.0432C11.5411 13.2991 11.3117 13.372 11.0666 13.247C10.9664 13.1963 10.8605 13.1334 10.792 13.0484C10.4827 12.6653 10.1626 12.288 9.88973 11.8793C9.26422 10.9424 8.75713 9.9399 8.3355 8.89536C8.19148 8.53792 7.92992 8.33448 7.55513 8.33101C6.62641 8.32277 5.69768 8.32928 4.7694 8.34836C4.20808 8.36007 4.0567 8.61427 4.28833 9.12136C4.51824 9.62454 4.75421 10.1256 4.99973 10.6214C5.85601 12.3504 6.79558 14.0304 7.96765 15.5704C8.51509 16.2896 9.10936 16.9645 9.84202 17.505C10.7677 18.1878 11.788 18.6593 12.9366 18.7734C13.6254 18.8419 14.3243 18.8116 15.0187 18.8246C15.0617 18.8254 15.1051 18.815 15.1476 18.8072C15.394 18.7621 15.5497 18.6185 15.59 18.3708C15.6165 18.2056 15.6148 18.036 15.6273 17.8685C15.6564 17.476 15.7232 17.0912 15.921 16.7446C16.1461 16.3503 16.5049 16.2622 16.8645 16.5351C17.1048 16.7173 17.3178 16.9385 17.5286 17.1558C17.9285 17.5688 18.3012 18.0099 18.718 18.4047C19.0963 18.763 19.5587 18.9898 20.0961 18.9877C20.8127 18.9851 21.5298 18.9712 22.246 18.9469C22.58 18.9356 22.9235 18.9304 23.2441 18.8489C23.7221 18.7274 23.8622 18.3518 23.6327 17.9123C23.5273 17.7111 23.4085 17.5141 23.2749 17.3306C22.8255 16.7142 22.2915 16.1733 21.7397 15.6493C21.4291 15.3539 21.1134 15.062 20.8223 14.7484C20.4662 14.3645 20.438 14.0595 20.7147 13.6127C20.8999 13.3138 21.1129 13.031 21.3272 12.7512C22.0065 11.8633 22.7058 10.9896 23.271 10.0206C23.4705 9.67833 23.664 9.33087 23.7247 8.93006C23.7716 8.61904 23.6497 8.43989 23.3386 8.38176C23.1955 8.35487 23.048 8.34099 22.9023 8.34142C21.8269 8.34619 20.7516 8.35964 19.6762 8.36268C19.416 8.36354 19.2451 8.485 19.1292 8.70276C19.0863 8.78388 19.0551 8.8715 19.0212 8.95739C18.5402 10.175 17.9255 11.3206 17.1473 12.373C16.9365 12.658 16.6845 12.9204 16.4155 13.152C16.1492 13.3815 15.9032 13.3195 15.7592 12.998C15.6664 12.7903 15.5987 12.5508 15.5983 12.3257C15.597 11.3974 15.6304 10.4691 15.6404 9.54082C15.6438 9.23804 15.6325 8.93266 15.5965 8.63249C15.5575 8.30672 15.3619 8.08809 15.0409 8.00177C14.8578 7.95275 14.6709 7.89419 14.4843 7.88942C13.7252 7.86947 12.9644 7.84431 12.2061 7.87077C11.8556 7.88292 11.5008 7.98138 11.1637 8.0907C10.9299 8.16661 10.736 8.33752 10.6597 8.61383Z" fill="white"/>
</svg>
