<svg width="22" height="15" viewBox="0 0 22 15" fill="none" xmlns="http://www.w3.org/2000/svg">
<path d="M6.8726 10.4352L6.28271 11.0251L7.46124 12.2023L8.04989 11.6149C8.3849 11.2796 8.78272 11.0135 9.22062 10.832C9.65851 10.6505 10.1279 10.557 10.6019 10.557C11.0759 10.557 11.5453 10.6505 11.9832 10.832C12.4211 11.0135 12.8189 11.2796 13.1539 11.6149L13.7426 12.2023L14.9211 11.0251L14.3325 10.4352C13.3419 9.44851 12.0007 8.89453 10.6025 8.89453C9.20439 8.89453 7.8632 9.44851 6.8726 10.4352Z" fill="#A0A5BA"/>
<path d="M10.6017 4.44509C9.32485 4.4424 8.06011 4.69274 6.88053 5.18161C5.70095 5.67047 4.62991 6.38818 3.72927 7.2933L3.14062 7.88318L4.31915 9.06171L4.9078 8.47307C7.95345 5.42865 13.2512 5.42988 16.2957 8.47307L16.8843 9.06295L18.0616 7.88442L17.473 7.29701C16.5732 6.39081 15.5026 5.67214 14.3231 5.1826C13.1436 4.69306 11.8787 4.44237 10.6017 4.44509Z" fill="#A0A5BA"/>
<path d="M20.6149 4.15266C19.3008 2.83626 17.74 1.79189 16.0218 1.07933C14.3036 0.366772 12.4618 0 10.6018 0C8.7417 0 6.89989 0.366772 5.18173 1.07933C3.46356 1.79189 1.90277 2.83626 0.588647 4.15266L0 4.74254L1.17728 5.92104L1.76716 5.33243C2.92634 4.17025 4.30342 3.24816 5.81951 2.61902C7.33561 1.98989 8.96093 1.66605 10.6024 1.66605C12.2438 1.66605 13.8692 1.98989 15.3853 2.61902C16.9014 3.24816 18.2784 4.17025 19.4376 5.33243L20.0263 5.92104L21.2035 4.74254L20.6149 4.15266Z" fill="#A0A5BA"/>
<path d="M10.6018 13.3328C10.3808 13.3331 10.1689 13.4211 10.0127 13.5776C9.85652 13.734 9.7688 13.946 9.7688 14.167L10.6018 15L11.4348 14.167C11.4348 13.946 11.3471 13.734 11.1909 13.5776C11.0347 13.4211 10.8228 13.3331 10.6018 13.3328Z" fill="#A0A5BA"/>
</svg>
